<svg viewBox="0 0 180 43" fill="none" xmlns="http://www.w3.org/2000/svg">
<path d="M18.2511 32.272C17.7178 32.528 17.1631 32.784 16.5871 33.04C16.0325 33.2747 15.4351 33.488 14.7951 33.68C14.1551 33.8507 13.4511 33.9893 12.6831 34.096C11.9365 34.2027 11.1151 34.256 10.2191 34.256C7.36046 34.256 5.15246 33.616 3.59513 32.336C2.05913 31.056 1.29113 28.9227 1.29113 25.936C1.29113 24.208 1.55779 22.5867 2.09113 21.072C2.62446 19.536 3.41379 18.2027 4.45913 17.072C5.50446 15.92 6.79513 15.0133 8.33113 14.352C9.86713 13.6907 11.6271 13.36 13.6111 13.36C14.5498 13.36 15.4031 13.424 16.1711 13.552C16.9605 13.68 17.6645 13.8507 18.2831 14.064C18.9231 14.256 19.4885 14.4693 19.9791 14.704C20.4911 14.9387 20.9498 15.1627 21.3551 15.376L20.2031 21.328H14.4431C14.4645 21.1147 14.4858 20.8373 14.5071 20.496C14.5498 20.1547 14.5818 19.8133 14.6031 19.472C14.6245 19.1093 14.6458 18.7573 14.6671 18.416C14.6885 18.0747 14.6991 17.7867 14.6991 17.552C14.6991 17.3813 14.6885 17.1893 14.6671 16.976C14.6458 16.7413 14.5925 16.5173 14.5071 16.304C14.4218 16.0907 14.2831 15.92 14.0911 15.792C13.9205 15.6427 13.6858 15.568 13.3871 15.568C12.8325 15.568 12.3205 15.8027 11.8511 16.272C11.4031 16.72 10.9978 17.328 10.6351 18.096C10.2725 18.8427 9.95246 19.696 9.67513 20.656C9.39779 21.616 9.16313 22.5973 8.97113 23.6C8.80046 24.5813 8.66179 25.552 8.55513 26.512C8.46979 27.472 8.42712 28.3147 8.42712 29.04C8.42712 29.2533 8.43779 29.52 8.45913 29.84C8.48046 30.16 8.54446 30.4693 8.65112 30.768C8.75779 31.0667 8.91779 31.3227 9.13113 31.536C9.36579 31.7493 9.67513 31.856 10.0591 31.856C10.7205 31.856 11.3605 31.4507 11.9791 30.64C12.5978 29.808 13.1418 28.336 13.6111 26.224H19.5311L18.2511 32.272ZM22.9446 21.424C24.0326 20.8907 25.142 20.5067 26.2726 20.272C27.4246 20.016 28.7046 19.888 30.1126 19.888C31.478 19.888 32.6086 19.9947 33.5046 20.208C34.4006 20.4213 35.1153 20.7307 35.6486 21.136C36.182 21.5413 36.5553 22.0213 36.7686 22.576C36.982 23.1307 37.0886 23.76 37.0886 24.464C37.0886 24.8693 37.0566 25.3067 36.9926 25.776C36.95 26.2453 36.8966 26.64 36.8326 26.96L35.3286 34H30.1766L29.6006 31.952H29.4086C28.726 32.6987 27.926 33.2747 27.0086 33.68C26.1126 34.064 25.2166 34.256 24.3206 34.256C23.8086 34.256 23.3073 34.1813 22.8166 34.032C22.326 33.8827 21.8886 33.6587 21.5046 33.36C21.1206 33.04 20.8113 32.6453 20.5766 32.176C20.342 31.6853 20.2246 31.0987 20.2246 30.416C20.2246 29.3067 20.5233 28.432 21.1206 27.792C21.7393 27.1307 22.5393 26.64 23.5206 26.32C24.5233 25.9787 25.6433 25.7653 26.8806 25.68C28.1393 25.5947 29.398 25.552 30.6566 25.552C30.6993 25.3387 30.7526 25.04 30.8166 24.656C30.8806 24.2507 30.9126 23.8987 30.9126 23.6C30.9126 23.216 30.806 22.864 30.5926 22.544C30.4006 22.2027 29.9846 22.032 29.3446 22.032C28.598 22.032 28.0433 22.256 27.6806 22.704C27.3393 23.1307 27.1153 23.6533 27.0086 24.272H22.3366L22.9446 21.424ZM30.3046 27.056H29.7286C29.11 27.056 28.5766 27.1413 28.1286 27.312C27.702 27.4613 27.35 27.664 27.0726 27.92C26.8166 28.176 26.6246 28.464 26.4966 28.784C26.3686 29.104 26.3046 29.424 26.3046 29.744C26.3046 30.256 26.4326 30.64 26.6886 30.896C26.966 31.152 27.286 31.28 27.6486 31.28C28.0966 31.28 28.534 31.12 28.9606 30.8C29.4086 30.48 29.686 30.0533 29.7926 29.52L30.3046 27.056ZM46.8729 22.288C47.3209 21.8613 47.8222 21.4667 48.3769 21.104C48.8675 20.8053 49.4542 20.528 50.1369 20.272C50.8195 20.016 51.5875 19.888 52.4409 19.888C53.4649 19.888 54.2222 20.1227 54.7129 20.592C55.2249 21.0613 55.5129 21.6373 55.5769 22.32H55.7689C56.2595 21.872 56.7929 21.4667 57.3689 21.104C57.8595 20.8053 58.4355 20.528 59.0969 20.272C59.7582 20.016 60.4622 19.888 61.2089 19.888C62.3182 19.888 63.2142 20.1973 63.8969 20.816C64.6009 21.4133 64.9529 22.192 64.9529 23.152C64.9529 23.6427 64.8675 24.2933 64.6969 25.104C64.5262 25.9147 64.3342 26.8 64.1209 27.76L62.7769 34H56.4729L58.2009 25.648C58.2649 25.328 58.3289 25.0187 58.3929 24.72C58.4569 24.4213 58.4889 24.176 58.4889 23.984C58.4889 23.6853 58.4035 23.44 58.2329 23.248C58.0622 23.0347 57.8169 22.928 57.4969 22.928C57.0915 22.928 56.7075 23.0773 56.3449 23.376C56.0035 23.6533 55.7369 23.888 55.5449 24.08L53.4649 34H47.4809L49.2409 25.648C49.2835 25.3707 49.3369 25.0933 49.4009 24.816C49.4649 24.5173 49.4969 24.2507 49.4969 24.016C49.4969 23.696 49.4115 23.44 49.2409 23.248C49.0915 23.0347 48.8569 22.928 48.5369 22.928C48.1529 22.928 47.7795 23.0667 47.4169 23.344C47.0755 23.6213 46.8089 23.856 46.6169 24.048L44.5049 34H37.9769L40.8889 20.24H46.1049L46.6809 22.288H46.8729ZM70.9154 39.376H64.3874L68.4194 20.24H73.6354L74.2114 22.288H74.4034C75.1714 21.4773 76.0247 20.9013 76.9634 20.56C77.9234 20.1973 78.862 20.016 79.7794 20.016C80.526 20.016 81.1447 20.1333 81.6354 20.368C82.1474 20.5813 82.5527 20.88 82.8514 21.264C83.15 21.648 83.3634 22.1067 83.4914 22.64C83.6194 23.1733 83.6834 23.7387 83.6834 24.336C83.6834 24.6347 83.662 25.0827 83.6194 25.68C83.5767 26.2773 83.4807 26.9493 83.3314 27.696C83.182 28.4213 82.9687 29.1787 82.6914 29.968C82.414 30.736 82.0407 31.44 81.5714 32.08C81.1234 32.72 80.5474 33.2427 79.8434 33.648C79.1607 34.0533 78.3394 34.256 77.3794 34.256C76.846 34.256 76.3234 34.192 75.8114 34.064C75.3207 33.936 74.8727 33.7653 74.4674 33.552C74.062 33.3387 73.6994 33.0933 73.3794 32.816C73.0807 32.5173 72.8567 32.2187 72.7074 31.92H72.5154L70.9154 39.376ZM74.3074 31.152C74.8194 31.152 75.246 30.8853 75.5874 30.352C75.9287 29.7973 76.206 29.1573 76.4194 28.432C76.6327 27.6853 76.782 26.9493 76.8674 26.224C76.974 25.4773 77.0274 24.9227 77.0274 24.56C77.0274 24.1333 76.9527 23.7813 76.8034 23.504C76.6754 23.2267 76.43 23.088 76.0674 23.088C75.662 23.088 75.278 23.2373 74.9154 23.536C74.5527 23.8133 74.286 24.0587 74.1154 24.272L72.8674 30.128C73.038 30.3627 73.2407 30.5973 73.4754 30.832C73.71 31.0453 73.9874 31.152 74.3074 31.152Z" fill="#FF6B00"/>
<path d="M88.7106 13.68H102.183L101.671 16.112H95.1106L93.8626 21.968H99.3346L98.8226 24.432H93.3506L91.3026 34H84.3906L88.7106 13.68ZM109.627 19.888C112.166 19.888 114.011 20.336 115.163 21.232C116.379 22.1707 116.987 23.728 116.987 25.904C116.987 27.248 116.763 28.464 116.315 29.552C115.867 30.6187 115.238 31.504 114.427 32.208C112.806 33.5733 110.459 34.256 107.387 34.256C104.763 34.256 102.886 33.7547 101.755 32.752C100.539 31.7067 99.9309 30.1387 99.9309 28.048C99.9309 26.6613 100.208 25.4027 100.763 24.272C101.339 23.1413 102.16 22.2027 103.227 21.456C104.784 20.4107 106.918 19.888 109.627 19.888ZM107.451 32.08C107.984 32.08 108.443 31.7813 108.827 31.184C109.232 30.5867 109.552 29.8613 109.787 29.008C110.022 28.1333 110.192 27.2373 110.299 26.32C110.427 25.3813 110.491 24.5707 110.491 23.888C110.491 23.2907 110.427 22.8427 110.299 22.544C110.192 22.224 109.947 22.064 109.563 22.064C108.987 22.064 108.486 22.3733 108.059 22.992C107.654 23.6107 107.323 24.3467 107.067 25.2C106.811 26.0533 106.619 26.928 106.491 27.824C106.384 28.72 106.331 29.4453 106.331 30C106.331 31.3867 106.704 32.08 107.451 32.08ZM120.545 20.24H125.761L126.241 22.64H126.465C126.956 21.872 127.585 21.2213 128.353 20.688C129.121 20.1547 130.134 19.888 131.393 19.888C131.478 19.888 131.606 19.8987 131.777 19.92C131.969 19.92 132.172 19.952 132.385 20.016C132.62 20.0587 132.854 20.1333 133.089 20.24C133.345 20.3253 133.59 20.4533 133.825 20.624L132.417 27.216H128.929C128.886 25.8933 128.769 24.976 128.577 24.464C128.385 23.9307 128.076 23.664 127.649 23.664C127.436 23.664 127.201 23.7173 126.945 23.824C126.71 23.9093 126.465 24.112 126.209 24.432L124.161 34H117.633L120.545 20.24ZM140.398 27.568C140.313 28.0373 140.249 28.4853 140.206 28.912C140.185 29.3387 140.174 29.7227 140.174 30.064C140.174 30.256 140.185 30.4693 140.206 30.704C140.227 30.9387 140.27 31.1627 140.334 31.376C140.419 31.568 140.526 31.7387 140.654 31.888C140.803 32.016 141.006 32.08 141.262 32.08C141.454 32.08 141.667 32.016 141.902 31.888C142.158 31.76 142.403 31.5787 142.638 31.344C142.894 31.1093 143.129 30.8213 143.342 30.48C143.577 30.1387 143.758 29.7547 143.886 29.328H149.134L148.302 32.752C147.875 33.0293 147.385 33.264 146.83 33.456C146.275 33.648 145.689 33.808 145.07 33.936C144.451 34.0427 143.822 34.1173 143.182 34.16C142.542 34.224 141.934 34.256 141.358 34.256C140.291 34.256 139.299 34.16 138.382 33.968C137.465 33.776 136.665 33.4453 135.982 32.976C135.299 32.5067 134.755 31.888 134.35 31.12C133.966 30.3307 133.774 29.36 133.774 28.208C133.774 27.1627 133.934 26.1387 134.254 25.136C134.595 24.1333 135.15 23.248 135.918 22.48C136.707 21.6907 137.753 21.0613 139.054 20.592C140.377 20.1227 142.019 19.888 143.982 19.888C146.115 19.888 147.715 20.2187 148.782 20.88C149.87 21.5413 150.414 22.576 150.414 23.984C150.414 24.56 150.329 25.1893 150.158 25.872C149.987 26.5333 149.731 27.0987 149.39 27.568H140.398ZM144.654 23.76C144.654 23.0987 144.547 22.6507 144.334 22.416C144.121 22.1813 143.865 22.064 143.566 22.064C143.225 22.064 142.905 22.1813 142.606 22.416C142.329 22.6293 142.073 22.928 141.838 23.312C141.603 23.6747 141.39 24.1013 141.198 24.592C141.006 25.0613 140.846 25.5627 140.718 26.096H144.366C144.409 25.84 144.451 25.5733 144.494 25.296C144.537 25.0613 144.569 24.8053 144.59 24.528C144.633 24.2507 144.654 23.9947 144.654 23.76ZM160.746 24.272C160.767 24.1653 160.789 24.0587 160.81 23.952C160.831 23.8453 160.842 23.728 160.842 23.6C160.842 23.216 160.767 22.864 160.618 22.544C160.49 22.2027 160.223 22.032 159.818 22.032C159.455 22.032 159.093 22.192 158.73 22.512C158.367 22.8107 158.186 23.216 158.186 23.728C158.186 24.0693 158.271 24.3467 158.442 24.56C158.634 24.752 158.879 24.912 159.178 25.04C159.477 25.168 159.807 25.2747 160.17 25.36C160.554 25.4453 160.927 25.5307 161.29 25.616C161.802 25.744 162.282 25.904 162.73 26.096C163.199 26.2667 163.615 26.5013 163.978 26.8C164.341 27.0987 164.629 27.472 164.842 27.92C165.055 28.3467 165.162 28.88 165.162 29.52C165.162 30.416 164.949 31.1733 164.522 31.792C164.117 32.3893 163.541 32.88 162.794 33.264C162.069 33.6267 161.205 33.8827 160.202 34.032C159.221 34.1813 158.165 34.256 157.034 34.256C155.306 34.256 153.877 34.128 152.746 33.872C151.615 33.616 150.826 33.3707 150.378 33.136L151.05 29.936H155.37C155.349 30.0427 155.338 30.1493 155.338 30.256C155.338 30.3413 155.338 30.4373 155.338 30.544C155.338 31.0347 155.445 31.4293 155.658 31.728C155.893 32.0053 156.287 32.144 156.842 32.144C157.461 32.144 157.898 31.9733 158.154 31.632C158.431 31.2693 158.57 30.9387 158.57 30.64C158.57 30.3413 158.453 30.0853 158.218 29.872C158.005 29.6373 157.727 29.4453 157.386 29.296C157.045 29.1253 156.661 28.9867 156.234 28.88C155.829 28.752 155.434 28.6347 155.05 28.528C154.773 28.464 154.453 28.3573 154.09 28.208C153.749 28.0587 153.418 27.8453 153.098 27.568C152.778 27.2907 152.511 26.9387 152.298 26.512C152.085 26.064 151.978 25.5093 151.978 24.848C151.978 23.9093 152.202 23.1307 152.65 22.512C153.119 21.872 153.717 21.36 154.442 20.976C155.189 20.592 156.021 20.3147 156.938 20.144C157.877 19.9733 158.815 19.888 159.754 19.888C160.927 19.888 162.037 19.9947 163.082 20.208C164.127 20.4213 164.981 20.6987 165.642 21.04L164.906 24.272H160.746ZM167.738 20.24C168.527 20.0693 169.22 19.8773 169.818 19.664C170.415 19.4507 170.959 19.184 171.45 18.864C171.962 18.544 172.442 18.1493 172.89 17.68C173.359 17.2107 173.86 16.6347 174.394 15.952H177.69L176.762 20.24H179.258L178.842 22.384H176.314L175.002 28.624C174.895 29.1147 174.81 29.552 174.746 29.936C174.682 30.32 174.65 30.6187 174.65 30.832C174.65 31.2587 174.799 31.5253 175.098 31.632C175.418 31.7387 176.004 31.792 176.858 31.792L176.378 34C176.228 34.0427 175.994 34.0747 175.674 34.096C175.375 34.1173 175.034 34.1387 174.65 34.16C174.287 34.2027 173.903 34.224 173.498 34.224C173.114 34.2453 172.772 34.256 172.474 34.256C171.94 34.256 171.418 34.2133 170.906 34.128C170.394 34.064 169.935 33.9253 169.53 33.712C169.124 33.4773 168.794 33.1467 168.538 32.72C168.303 32.2933 168.186 31.7173 168.186 30.992C168.186 30.736 168.196 30.416 168.218 30.032C168.26 29.648 168.335 29.2213 168.442 28.752L169.786 22.384H167.29L167.738 20.24Z"/>
<path d="M167.582 0.234232C167.419 0.0842531 167.197 0 166.966 0C166.735 0 166.514 0.0842531 166.351 0.234232L162.867 3.43427C162.735 3.55558 162.649 3.71267 162.622 3.88236C162.594 4.05204 162.627 4.22534 162.715 4.37668C162.93 4.74708 163.266 4.99668 163.594 5.16628L161.126 7.43431C160.962 7.58433 160.871 7.78778 160.871 7.99991C160.871 8.21205 160.962 8.4155 161.126 8.56552C161.542 8.94792 162.068 9.18153 162.549 9.32713L160.255 11.4344C160.15 11.531 160.073 11.6509 160.033 11.7824C159.992 11.9139 159.989 12.0528 160.024 12.1857C160.058 12.3186 160.13 12.4412 160.23 12.5417C160.331 12.6423 160.458 12.7174 160.6 12.76C161.2 12.9416 161.821 13.0704 162.441 13.184C163.121 13.3096 163.962 13.4336 164.919 13.5136L164.398 14.9472C164.355 15.0675 164.343 15.1955 164.364 15.3208C164.384 15.4461 164.437 15.5651 164.518 15.6679C164.599 15.7707 164.705 15.8545 164.828 15.9122C164.951 15.9699 165.087 16 165.225 16H168.708C168.846 16 168.982 15.9699 169.105 15.9122C169.228 15.8545 169.334 15.7707 169.415 15.6679C169.495 15.5651 169.548 15.4461 169.569 15.3208C169.59 15.1955 169.578 15.0675 169.534 14.9472L169.014 13.5136C169.972 13.4336 170.813 13.3096 171.491 13.1848C172.111 13.0704 172.736 12.9416 173.337 12.7592C173.478 12.7161 173.605 12.6406 173.705 12.5399C173.805 12.4393 173.876 12.3167 173.91 12.184C173.944 12.0512 173.94 11.9127 173.9 11.7815C173.859 11.6503 173.783 11.5308 173.678 11.4344L171.384 9.32713C171.865 9.18233 172.391 8.94792 172.807 8.56552C172.97 8.4155 173.062 8.21205 173.062 7.99991C173.062 7.78778 172.97 7.58433 172.807 7.43431L170.338 5.16628C170.666 4.99668 171.003 4.74708 171.218 4.37668C171.306 4.22534 171.338 4.05204 171.311 3.88236C171.283 3.71267 171.197 3.55558 171.065 3.43427L167.582 0.234232Z" fill="#81A263"/>
</svg>
