<svg width="24" height="24" viewBox="0 0 24 24" fill="none" xmlns="http://www.w3.org/2000/svg">
<path d="M11.2936 20.364C11.4812 20.5514 11.7355 20.6567 12.0006 20.6567C12.2658 20.6567 12.5201 20.5514 12.7076 20.364L18.3646 14.707C18.4601 14.6147 18.5363 14.5044 18.5887 14.3824C18.6411 14.2604 18.6687 14.1291 18.6699 13.9964C18.671 13.8636 18.6457 13.7319 18.5955 13.609C18.5452 13.4861 18.4709 13.3744 18.377 13.2806C18.2831 13.1867 18.1715 13.1124 18.0486 13.0621C17.9257 13.0118 17.794 12.9865 17.6612 12.9877C17.5285 12.9889 17.3972 13.0164 17.2752 13.0688C17.1532 13.1213 17.0429 13.1974 16.9506 13.293L13.0006 17.243L13.0006 3.99995C13.0006 3.73474 12.8953 3.48038 12.7077 3.29284C12.5202 3.10531 12.2659 2.99995 12.0006 2.99995C11.7354 2.99995 11.4811 3.10531 11.2935 3.29284C11.106 3.48038 11.0006 3.73474 11.0006 3.99995L11.0006 17.243L7.05063 13.293C6.86203 13.1108 6.60943 13.01 6.34723 13.0123C6.08504 13.0146 5.83422 13.1197 5.64882 13.3051C5.46341 13.4905 5.35824 13.7414 5.35596 14.0035C5.35368 14.2657 5.45448 14.5183 5.63663 14.707L11.2936 20.364Z" fill="#EEEEEE"/>
</svg>
