<svg width="45" height="45" viewBox="0 0 45 45" fill="none" xmlns="http://www.w3.org/2000/svg">
<path d="M35.9956 10.1189H31.2289L28.8851 6.604C28.7595 6.41579 28.5894 6.26146 28.39 6.15468C28.1905 6.04789 27.9678 5.99196 27.7415 5.99182H16.7361C16.5098 5.99196 16.2871 6.04789 16.0876 6.15468C15.8882 6.26146 15.7181 6.41579 15.5926 6.604L13.247 10.1189H8.48202C7.38746 10.1189 6.33773 10.5537 5.56376 11.3276C4.78979 12.1016 4.35498 13.1513 4.35498 14.2459V33.5054C4.35498 34.6 4.78979 35.6497 5.56376 36.4237C6.33773 37.1976 7.38746 37.6324 8.48202 37.6324H35.9956C37.0902 37.6324 38.1399 37.1976 38.9139 36.4237C39.6878 35.6497 40.1226 34.6 40.1226 33.5054V14.2459C40.1226 13.1513 39.6878 12.1016 38.9139 11.3276C38.1399 10.5537 37.0902 10.1189 35.9956 10.1189ZM28.4294 23.1878C28.4294 24.4122 28.0663 25.6091 27.3861 26.6271C26.7058 27.6451 25.739 28.4386 24.6078 28.9071C23.4767 29.3757 22.2319 29.4983 21.0311 29.2594C19.8302 29.0206 18.7272 28.431 17.8614 27.5652C16.9957 26.6994 16.4061 25.5964 16.1672 24.3955C15.9283 23.1947 16.0509 21.95 16.5195 20.8188C16.988 19.6876 17.7815 18.7208 18.7995 18.0406C19.8176 17.3603 21.0144 16.9973 22.2388 16.9973C23.8806 16.9973 25.4552 17.6495 26.6162 18.8104C27.7771 19.9714 28.4294 21.546 28.4294 23.1878Z" fill="black"/>
</svg>
