<svg width="24" height="24" viewBox="0 0 24 24" xmlns="http://www.w3.org/2000/svg">
<path fill-rule="evenodd" clip-rule="evenodd" d="M18.0299 7.97007C18.1704 8.1107 18.2492 8.30132 18.2492 8.50007C18.2492 8.69882 18.1704 8.88945 18.0299 9.03007L11.0299 16.0301C10.8893 16.1705 10.6987 16.2494 10.4999 16.2494C10.3012 16.2494 10.1105 16.1705 9.96991 16.0301L5.96991 12.0301C5.89622 11.9614 5.83712 11.8786 5.79613 11.7866C5.75514 11.6946 5.73309 11.5953 5.73132 11.4946C5.72954 11.3939 5.74807 11.2939 5.78579 11.2005C5.82351 11.1071 5.87965 11.0223 5.95087 10.951C6.02209 10.8798 6.10692 10.8237 6.20031 10.7859C6.2937 10.7482 6.39373 10.7297 6.49443 10.7315C6.59513 10.7333 6.69445 10.7553 6.78645 10.7963C6.87845 10.8373 6.96125 10.8964 7.02991 10.9701L10.4999 14.4401L16.9699 7.97007C17.1105 7.82962 17.3012 7.75073 17.4999 7.75073C17.6987 7.75073 17.8893 7.82962 18.0299 7.97007Z"/>
</svg>
