<svg width="17" height="18" viewBox="0 0 17 18" fill="none" xmlns="http://www.w3.org/2000/svg">
<path d="M2.78958 12.9935C2.8977 13.1098 2.98056 13.2503 3.03223 13.4048C3.08391 13.5593 3.10313 13.7242 3.08854 13.8876C3.01515 14.6439 2.87636 15.3913 2.67396 16.1201C4.12708 15.7595 5.01458 15.3421 5.41771 15.1233C5.64636 14.9992 5.90967 14.9698 6.15729 15.0407C6.86698 15.2442 7.59867 15.3463 8.33333 15.3443C12.4958 15.3443 15.625 12.2111 15.625 8.64695C15.625 5.08284 12.4958 1.9496 8.33333 1.9496C4.17083 1.9496 1.04167 5.08396 1.04167 8.64695C1.04167 10.2856 1.68437 11.8059 2.78958 12.9935ZM2.27604 17.3524C2.02923 17.4047 1.78162 17.4527 1.53333 17.4964C1.325 17.5321 1.16667 17.2999 1.24896 17.0923C1.3412 16.8585 1.42597 16.6213 1.50312 16.3813L1.50625 16.3701C1.76458 15.5664 1.975 14.6422 2.05208 13.7816C0.773958 12.4086 0 10.6115 0 8.64695C0 4.33162 3.73125 0.833374 8.33333 0.833374C12.9354 0.833374 16.6667 4.33162 16.6667 8.64695C16.6667 12.9623 12.9354 16.4605 8.33333 16.4605C7.50792 16.4625 6.68589 16.3476 5.88854 16.119C5.34687 16.4125 4.18125 16.9472 2.27604 17.3524Z" fill="#666666"/>
</svg>
