<svg width="20" height="20" viewBox="0 0 20 20" fill="none" xmlns="http://www.w3.org/2000/svg">
<path d="M17 9.00027C16.9999 7.39293 16.5156 5.82292 15.6102 4.49482C14.7048 3.16672 13.4204 2.14214 11.9243 1.5546C10.4282 0.967064 8.78981 0.843814 7.22265 1.20092C5.65548 1.55802 4.23223 2.37891 3.13836 3.55661C2.0445 4.73431 1.33076 6.2142 1.09015 7.80343C0.849539 9.39265 1.09323 11.0175 1.78945 12.4662C2.48567 13.9149 3.60215 15.1203 4.99337 15.9253C6.38459 16.7303 7.98604 17.0976 9.58901 16.9793C9.4302 16.665 9.30194 16.3361 9.20601 15.9973L9.00001 16.0003C7.60676 16.0003 6.24522 15.5845 5.08964 14.8062C3.93406 14.0279 3.03702 12.9224 2.51334 11.6314C1.98966 10.3403 1.86316 8.92231 2.15004 7.55892C2.43691 6.19554 3.12411 4.94877 4.12368 3.9782C5.12324 3.00764 6.3897 2.35743 7.76094 2.11081C9.13218 1.86419 10.5458 2.03236 11.8209 2.59382C13.096 3.15527 14.1746 4.08446 14.9185 5.26245C15.6625 6.44043 16.038 7.81363 15.997 9.20627C16.3397 9.3036 16.667 9.43127 16.979 9.58927C16.9932 9.39326 17.0002 9.19679 17 9.00027ZM9.02201 14.0003C9.05334 13.6549 9.11534 13.3199 9.20801 12.9953C8.57696 13.0291 7.94689 12.9126 7.36968 12.6553C6.79248 12.398 6.28465 12.0073 5.88801 11.5153C5.84734 11.4624 5.7965 11.4182 5.73849 11.3852C5.68047 11.3523 5.61645 11.3313 5.55019 11.3235C5.48393 11.3156 5.41678 11.3212 5.35269 11.3397C5.2886 11.3582 5.22887 11.3894 5.17701 11.4314C5.12515 11.4734 5.08223 11.5253 5.05075 11.5841C5.01927 11.643 4.99989 11.7075 4.99374 11.7739C4.98759 11.8403 4.99479 11.9073 5.01493 11.9709C5.03507 12.0346 5.06774 12.0935 5.11101 12.1443C5.57984 12.724 6.1724 13.1916 6.8453 13.5127C7.5182 13.8339 8.2544 14.0004 9.00001 14.0003H9.02201ZM12.5 7.50027C12.5 7.23505 12.3946 6.9807 12.2071 6.79316C12.0196 6.60562 11.7652 6.50027 11.5 6.50027C11.2348 6.50027 10.9804 6.60562 10.7929 6.79316C10.6054 6.9807 10.5 7.23505 10.5 7.50027C10.5 7.76548 10.6054 8.01984 10.7929 8.20737C10.9804 8.39491 11.2348 8.50027 11.5 8.50027C11.7652 8.50027 12.0196 8.39491 12.2071 8.20737C12.3946 8.01984 12.5 7.76548 12.5 7.50027ZM7.50001 7.50027C7.50001 7.23505 7.39465 6.9807 7.20711 6.79316C7.01958 6.60562 6.76522 6.50027 6.50001 6.50027C6.23479 6.50027 5.98044 6.60562 5.7929 6.79316C5.60536 6.9807 5.50001 7.23505 5.50001 7.50027C5.50001 7.76548 5.60536 8.01984 5.7929 8.20737C5.98044 8.39491 6.23479 8.50027 6.50001 8.50027C6.76522 8.50027 7.01958 8.39491 7.20711 8.20737C7.39465 8.01984 7.50001 7.76548 7.50001 7.50027ZM19 14.5003C19 15.6937 18.5259 16.8383 17.682 17.6822C16.8381 18.5262 15.6935 19.0003 14.5 19.0003C13.3065 19.0003 12.1619 18.5262 11.318 17.6822C10.4741 16.8383 10 15.6937 10 14.5003C10 13.3068 10.4741 12.1622 11.318 11.3183C12.1619 10.4744 13.3065 10.0003 14.5 10.0003C15.6935 10.0003 16.8381 10.4744 17.682 11.3183C18.5259 12.1622 19 13.3068 19 14.5003ZM15 12.5003C15 12.3677 14.9473 12.2405 14.8536 12.1467C14.7598 12.0529 14.6326 12.0003 14.5 12.0003C14.3674 12.0003 14.2402 12.0529 14.1465 12.1467C14.0527 12.2405 14 12.3677 14 12.5003V14.0003H12.5C12.3674 14.0003 12.2402 14.0529 12.1465 14.1467C12.0527 14.2405 12 14.3677 12 14.5003C12 14.6329 12.0527 14.7601 12.1465 14.8538C12.2402 14.9476 12.3674 15.0003 12.5 15.0003H14V16.5003C14 16.6329 14.0527 16.7601 14.1465 16.8538C14.2402 16.9476 14.3674 17.0003 14.5 17.0003C14.6326 17.0003 14.7598 16.9476 14.8536 16.8538C14.9473 16.7601 15 16.6329 15 16.5003V15.0003H16.5C16.6326 15.0003 16.7598 14.9476 16.8536 14.8538C16.9473 14.7601 17 14.6329 17 14.5003C17 14.3677 16.9473 14.2405 16.8536 14.1467C16.7598 14.0529 16.6326 14.0003 16.5 14.0003H15V12.5003Z" fill="#666666"/>
</svg>
