<svg width="12" height="12" viewBox="0 0 12 12" fill="none" xmlns="http://www.w3.org/2000/svg">
<path d="M5.915 4.5L7.5 6.08V6C7.5 5.60218 7.34196 5.22064 7.06066 4.93934C6.77936 4.65804 6.39782 4.5 6 4.5H5.915ZM3.765 4.9L4.54 5.675C4.515 5.78 4.5 5.885 4.5 6C4.5 6.39782 4.65804 6.77936 4.93934 7.06066C5.22064 7.34196 5.60218 7.5 6 7.5C6.11 7.5 6.22 7.485 6.325 7.46L7.1 8.235C6.765 8.4 6.395 8.5 6 8.5C5.33696 8.5 4.70107 8.23661 4.23223 7.76777C3.76339 7.29893 3.5 6.66304 3.5 6C3.5 5.605 3.6 5.235 3.765 4.9ZM1 2.135L2.14 3.275L2.365 3.5C1.54 4.15 0.89 5 0.5 6C1.365 8.195 3.5 9.75 6 9.75C6.775 9.75 7.515 9.6 8.19 9.33L8.405 9.54L9.865 11L10.5 10.365L1.635 1.5M6 3.5C6.66304 3.5 7.29893 3.76339 7.76777 4.23223C8.23661 4.70107 8.5 5.33696 8.5 6C8.5 6.32 8.435 6.63 8.32 6.91L9.785 8.375C10.535 7.75 11.135 6.93 11.5 6C10.635 3.805 8.5 2.25 6 2.25C5.3 2.25 4.63 2.375 4 2.6L5.085 3.675C5.37 3.565 5.675 3.5 6 3.5Z" fill="black"/>
</svg>
