<svg width="20" height="12" viewBox="0 0 20 12" fill="none" xmlns="http://www.w3.org/2000/svg">
<path d="M1 7.00003C4.6 -1.00001 15.4 -1.00001 19 7.00003" stroke="current" stroke-linecap="round" stroke-linejoin="round"/>
<path d="M10 11C9.60603 11 9.21593 10.9224 8.85195 10.7716C8.48797 10.6209 8.15726 10.3999 7.87868 10.1213C7.6001 9.84274 7.37913 9.51202 7.22836 9.14804C7.0776 8.78406 7 8.39395 7 7.99998C7 7.60602 7.0776 7.21591 7.22836 6.85193C7.37913 6.48795 7.6001 6.15723 7.87868 5.87865C8.15726 5.60008 8.48797 5.3791 8.85195 5.22833C9.21593 5.07757 9.60603 4.99997 10 4.99997C10.7956 4.99997 11.5587 5.31604 12.1213 5.87865C12.6839 6.44126 13 7.20433 13 7.99998C13 8.79564 12.6839 9.5587 12.1213 10.1213C11.5587 10.6839 10.7956 11 10 11Z" fill="current" stroke="current" stroke-linecap="round" stroke-linejoin="round"/>
</svg>
