<svg width="25" height="26" viewBox="0 0 25 26" fill="none" xmlns="http://www.w3.org/2000/svg">
<g clip-path="url(#clip0_1127_2346)">
<path d="M13.7491 4.88303L13.749 4.88322L12.787 5.87443L12.5 6.17022L12.2129 5.87443L11.251 4.88322L11.2506 4.88274C8.92873 2.48229 5.18285 2.11741 2.68619 4.24503C-0.20193 6.71028 -0.355192 11.1404 2.23085 13.8139L11.6789 23.5695C12.132 24.0371 12.8631 24.0371 13.3162 23.5695L22.7644 13.8137L22.7645 13.8136C25.3551 11.1401 25.2019 6.71025 22.3138 4.24503L13.7491 4.88303ZM13.7491 4.88303C16.076 2.48213 19.8171 2.11757 22.3136 4.24484L13.7491 4.88303Z" fill="white" stroke="#666666" stroke-width="0.8"/>
</g>
<defs>
<clipPath id="clip0_1127_2346">
<rect width="25" height="25" fill="white" transform="translate(0 0.883972)"/>
</clipPath>
</defs>
</svg>
