<svg width="24" height="24" viewBox="0 0 25 22" fill="none" xmlns="http://www.w3.org/2000/svg">
<path d="M15.9881 19.1384L15.9876 19.1388C15.3344 19.6548 14.7244 20.1294 14.1286 20.4776C13.5327 20.8259 12.9981 21.0187 12.5 21.0187C12.002 21.0187 11.4675 20.8257 10.8714 20.4773C10.2754 20.129 9.66547 19.6547 9.0121 19.1398C8.65574 18.8588 8.29023 18.577 7.92037 18.2919C6.35099 17.0821 4.70351 15.8121 3.34603 14.2837C1.6858 12.4144 0.5 10.1982 0.5 7.31491C0.5 4.46258 2.11232 2.04791 4.34846 1.02592C6.55306 0.0183484 9.45511 0.327652 12.1397 3.11783L12.5 3.49227L12.8603 3.11787C15.5448 0.328318 18.4469 0.0192701 20.6515 1.027C22.8877 2.04915 24.5 4.46384 24.5 7.31616C24.5 10.1989 23.3145 12.415 21.6544 14.2841C20.2947 15.8151 18.6437 17.0868 17.0715 18.2978C16.7045 18.5804 16.3418 18.8598 15.9881 19.1384Z" fill="white" stroke="black"/>
</svg>
