<svg width="25" height="26" viewBox="0 0 25 26" fill="none" xmlns="http://www.w3.org/2000/svg">
<g clip-path="url(#clip0_1127_2346)">
<path d="M13.8207 4.95286L13.8209 4.95262C16.1155 2.58505 19.797 2.23188 22.2486 4.3209C25.0924 6.74807 25.2438 11.1113 22.6927 13.744L22.6926 13.7441L13.2444 23.4999C13.2444 23.4999 13.2444 23.4999 13.2443 23.5C12.8305 23.927 12.1646 23.927 11.7508 23.5C11.7507 23.4999 11.7507 23.4999 11.7507 23.4999L2.30273 13.7443C-0.243835 11.1117 -0.0924938 6.74826 2.7512 4.32102C5.20307 2.2317 8.88924 2.58529 11.1787 4.95227L11.1793 4.95286L12.1412 5.94407L12.5 6.31382L12.8588 5.94407L13.8207 4.95286Z" fill="white" stroke="#666666"/>
</g>
<defs>
<clipPath id="clip0_1127_2346">
<rect width="25" height="25" fill="white" transform="translate(0 0.883972)"/>
</clipPath>
</defs>
</svg>
