<svg width="24" height="24" viewBox="0 0 24 24" fill="none" xmlns="http://www.w3.org/2000/svg">
<g clip-path="url(#clip0_478_5741)">
<path d="M6.11371 16.944C7.09697 18.647 8.64032 19.9565 10.4808 20.6492C12.3213 21.3419 14.345 21.375 16.2072 20.7429C18.0693 20.1108 19.6547 18.8525 20.6931 17.1826C21.7316 15.5126 22.1589 13.5342 21.9022 11.5845C21.6455 9.63482 20.7207 7.83444 19.2855 6.49014C17.8502 5.14584 15.9932 4.3408 14.0308 4.21218C12.0685 4.08357 10.1223 4.63933 8.52386 5.78479C6.92538 6.93024 5.77352 8.59451 5.26455 10.494" stroke="black" stroke-width="2" stroke-linecap="round" stroke-linejoin="round"/>
<path d="M2.49981 8.50085L4.49983 12.0009L8.49976 10.5" stroke="black" stroke-width="2" stroke-linecap="round" stroke-linejoin="round"/>
<path d="M13 8.5V13L16 16" stroke="black" stroke-width="2" stroke-linecap="round" stroke-linejoin="round"/>
</g>
<defs>
<clipPath id="clip0_478_5741">
<rect width="24" height="24" fill="white"/>
</clipPath>
</defs>
</svg>
