<svg width="24" height="22" viewBox="0 0 24 22" fill="none" xmlns="http://www.w3.org/2000/svg">
<path d="M21.6147 8.79986C21.6147 8.50812 21.4883 8.22833 21.2633 8.02203C21.0382 7.81574 20.733 7.69985 20.4147 7.69985C20.0965 7.69985 19.7913 7.81574 19.5662 8.02203C19.3412 8.22833 19.2147 8.50812 19.2147 8.79986H21.6147ZM4.81475 8.79986C4.81475 8.50812 4.68832 8.22833 4.46327 8.02203C4.23823 7.81574 3.93301 7.69985 3.61475 7.69985C3.29649 7.69985 2.99126 7.81574 2.76622 8.02203C2.54117 8.22833 2.41475 8.50812 2.41475 8.79986H4.81475ZM21.9663 11.7776C22.1927 11.978 22.4958 12.0888 22.8104 12.0863C23.1251 12.0838 23.426 11.9681 23.6485 11.7642C23.871 11.5602 23.9972 11.2843 24 10.9959C24.0027 10.7075 23.8817 10.4296 23.6631 10.2222L21.9663 11.7776ZM12.0147 1.09978L12.8631 0.322068C12.6381 0.115848 12.3329 0 12.0147 0C11.6965 0 11.3914 0.115848 11.1663 0.322068L12.0147 1.09978ZM0.366346 10.2222C0.251734 10.3236 0.160315 10.445 0.0974242 10.5792C0.0345334 10.7134 0.00142989 10.8578 4.53081e-05 11.0038C-0.00133927 11.1499 0.0290228 11.2947 0.0893599 11.4299C0.149697 11.5651 0.238801 11.6879 0.351472 11.7912C0.464143 11.8945 0.598125 11.9762 0.745601 12.0315C0.893077 12.0868 1.05109 12.1146 1.21043 12.1134C1.36976 12.1121 1.52723 12.0818 1.67363 12.0241C1.82004 11.9665 1.95245 11.8827 2.06315 11.7776L0.366346 10.2222ZM6.01475 22H18.0147V19.8H6.01475V22ZM21.6147 18.7V8.79986H19.2147V18.7H21.6147ZM4.81475 18.7V8.79986H2.41475V18.7H4.81475ZM23.6631 10.2222L12.8631 0.322068L11.1663 1.87749L21.9663 11.7776L23.6631 10.2222ZM11.1663 0.322068L0.366346 10.2222L2.06315 11.7776L12.8631 1.87749L11.1663 0.322068ZM18.0147 22C18.9695 22 19.8852 21.6523 20.5603 21.0334C21.2355 20.4146 21.6147 19.5752 21.6147 18.7H19.2147C19.2147 18.9917 19.0883 19.2715 18.8633 19.4778C18.6382 19.6841 18.333 19.8 18.0147 19.8V22ZM6.01475 19.8C5.69649 19.8 5.39126 19.6841 5.16622 19.4778C4.94117 19.2715 4.81475 18.9917 4.81475 18.7H2.41475C2.41475 19.5752 2.79403 20.4146 3.46916 21.0334C4.14429 21.6523 5.05997 22 6.01475 22V19.8Z"/>
</svg>
