<svg width="current" height="28" viewBox="0 0 28 28" fill="none" xmlns="http://www.w3.org/2000/svg">
<path d="M3.5 14C3.5 15.3789 3.77159 16.7443 4.29926 18.0182C4.82694 19.2921 5.60036 20.4496 6.57538 21.4246C7.55039 22.3996 8.70791 23.1731 9.98182 23.7007C11.2557 24.2284 12.6211 24.5 14 24.5C15.3789 24.5 16.7443 24.2284 18.0182 23.7007C19.2921 23.1731 20.4496 22.3996 21.4246 21.4246C22.3996 20.4496 23.1731 19.2921 23.7007 18.0182C24.2284 16.7443 24.5 15.3789 24.5 14C24.5 12.6211 24.2284 11.2557 23.7007 9.98182C23.1731 8.70791 22.3996 7.55039 21.4246 6.57538C20.4496 5.60036 19.2921 4.82694 18.0182 4.29927C16.7443 3.77159 15.3789 3.5 14 3.5C12.6211 3.5 11.2557 3.77159 9.98182 4.29927C8.70791 4.82694 7.55039 5.60036 6.57538 6.57538C5.60036 7.55039 4.82694 8.70791 4.29926 9.98182C3.77159 11.2557 3.5 12.6211 3.5 14Z" stroke="current" stroke-width="2" stroke-linecap="round" stroke-linejoin="round"/>
<path d="M17.2667 10.4993C17.0553 10.1327 16.7483 9.8305 16.3783 9.62499C16.0084 9.41949 15.5896 9.31844 15.1667 9.33268H12.8333C12.2145 9.33268 11.621 9.57852 11.1834 10.0161C10.7458 10.4537 10.5 11.0472 10.5 11.666C10.5 12.2849 10.7458 12.8783 11.1834 13.3159C11.621 13.7535 12.2145 13.9993 12.8333 13.9993H15.1667C15.7855 13.9993 16.379 14.2452 16.8166 14.6828C17.2542 15.1204 17.5 15.7138 17.5 16.3327C17.5 16.9515 17.2542 17.545 16.8166 17.9826C16.379 18.4202 15.7855 18.666 15.1667 18.666H12.8333C12.4104 18.6803 11.9916 18.5792 11.6217 18.3737C11.2517 18.1682 10.9447 17.866 10.7333 17.4993M14 8.16602V19.8327" stroke="current" stroke-width="2" stroke-linecap="round" stroke-linejoin="round"/>
</svg>
