<svg width="18" height="18" viewBox="0 0 18 18" fill="none" xmlns="http://www.w3.org/2000/svg">
<path d="M15.9098 9.02809L15.9136 9.02743L13.5948 11.1016L13.3752 11.298L13.4406 11.5853L14.5429 16.4252L14.5433 16.4269C14.5827 16.5968 14.5724 16.7751 14.5144 16.9384C14.4563 17.1016 14.3539 17.2405 14.2228 17.3393C14.092 17.4379 13.938 17.4928 13.7803 17.4993C13.6229 17.5059 13.4658 17.4641 13.3286 17.3773C13.3284 17.3772 13.3283 17.3771 13.3282 17.377L9.26908 14.7875L9.00024 14.616L8.73135 14.7874L4.67083 17.3764C4.67053 17.3766 4.67023 17.3767 4.66993 17.3769C4.53288 17.463 4.37618 17.5043 4.21917 17.4975C4.0618 17.4907 3.90808 17.4358 3.7775 17.3372C3.6467 17.2385 3.54449 17.0998 3.48649 16.9369C3.42845 16.7739 3.41808 16.596 3.45713 16.4263L3.4573 16.4256L4.56365 11.5856L4.62937 11.2982L4.40957 11.1016L0.79169 7.86547C0.79164 7.86542 0.791589 7.86538 0.791538 7.86533C0.668301 7.75487 0.576977 7.60714 0.531669 7.43927C0.486317 7.27123 0.489764 7.09278 0.54144 6.92696C0.593084 6.76125 0.689859 6.61767 0.816955 6.51264C0.943398 6.40814 1.09452 6.34603 1.25121 6.3314L5.99292 5.93485L6.30116 5.90907L6.4157 5.62173L8.2457 1.031L8.24613 1.02991C8.3097 0.869329 8.41676 0.734867 8.55094 0.641599C8.68489 0.548495 8.84053 0.5 8.99815 0.5C9.15578 0.5 9.31141 0.548495 9.44536 0.641599C9.57954 0.734867 9.6866 0.869329 9.75017 1.02991L9.75058 1.03093L11.5798 5.62166L11.6943 5.90907L12.0026 5.93485L16.7444 6.33141C16.7447 6.33143 16.7449 6.33146 16.7452 6.33148C16.9025 6.34543 17.0544 6.40721 17.1815 6.51174C17.309 6.61661 17.4062 6.76022 17.4582 6.92613C17.5102 7.09214 17.5138 7.2709 17.4684 7.43925C17.4231 7.6075 17.3316 7.75554 17.208 7.86614L15.9098 9.02809Z" fill="#FFD233" stroke="#FFD233"/>
</svg>
