<svg width="18" height="18" viewBox="0 0 18 18" fill="none" xmlns="http://www.w3.org/2000/svg">
<path d="M8.2567 1.51869C8.5317 0.827102 9.4683 0.827103 9.7433 1.51869L11.3664 5.60058C11.4823 5.89213 11.7444 6.09134 12.0453 6.11658L16.2582 6.46986C16.9719 6.52972 17.2614 7.46148 16.7176 7.94876L13.5078 10.8248C13.2785 11.0302 13.1784 11.3525 13.2485 11.6597L14.2291 15.9599C14.3952 16.6885 13.6375 17.2644 13.0264 16.8739L9.41962 14.5695C9.162 14.4049 8.838 14.4049 8.58038 14.5695L4.97359 16.8739C4.36249 17.2644 3.60476 16.6885 3.77091 15.9599L4.75154 11.6597C4.82158 11.3525 4.72146 11.0302 4.4922 10.8248L1.28245 7.94876C0.738626 7.46148 1.02805 6.52972 1.74183 6.46986L5.95469 6.11658C6.2556 6.09134 6.51772 5.89213 6.63365 5.60058L8.2567 1.51869Z" fill="current" stroke="current"/>
</svg>
