<svg width="26" height="26" viewBox="0 0 26 26" fill="none" xmlns="http://www.w3.org/2000/svg">
<path d="M11.9165 4.3335H4.33317C3.75853 4.3335 3.20743 4.56177 2.80111 4.9681C2.39478 5.37443 2.1665 5.92553 2.1665 6.50016V21.6668C2.1665 22.2415 2.39478 22.7926 2.80111 23.1989C3.20743 23.6052 3.75853 23.8335 4.33317 23.8335H19.4998C20.0745 23.8335 20.6256 23.6052 21.0319 23.1989C21.4382 22.7926 21.6665 22.2415 21.6665 21.6668V14.0835" stroke="current" stroke-width="2" stroke-linecap="round" stroke-linejoin="round"/>
<path d="M21.6665 2.03516C21.057 2.03516 20.4725 2.27728 20.0415 2.70825L9.74984 12.9999L8.6665 17.3333L12.9998 16.2499L23.2915 5.95825C23.7225 5.52728 23.9646 4.94275 23.9646 4.33325C23.9646 3.72376 23.7225 3.13923 23.2915 2.70825C22.8605 2.27728 22.276 2.03516 21.6665 2.03516Z" stroke="current" stroke-width="2" stroke-linecap="round" stroke-linejoin="round"/>
</svg>
